<svg xmlns="http://www.w3.org/2000/svg" viewBox="0 0 1200 630"><rect width="1200" height="630" fill="#12100C"/><path transform="translate(83 198) scale(.66)" fill="#FDF001" d="M467 350C468 349 468 349 467 349C466 349 466 349 467 348C470 345 471 342 471 334C471 327 469 321 467 321C466 321 466 321 467 320C468 319 468 319 467 319C466 318 467 318 468 319C474 320 479 324 480 330C481 338 479 344 474 348C471 350 466 352 467 350ZM488 350C488 350 489 344 489 334C489 319 489 319 487 319C485 318 488 318 493 318C499 318 501 318 499 319C497 320 497 320 498 320C500 320 500 320 499 321C497 322 497 324 497 335L498 348L501 348L504 348L500 349C497 350 497 350 502 350C505 350 507 350 507 349C507 348 507 348 506 348C506 348 506 347 508 345C510 343 511 341 511 340C512 338 512 338 512 340C512 341 512 342 513 341C514 341 514 342 514 346L514 350L500 351C493 351 487 351 488 350ZM519 350C520 349 520 349 520 349C519 349 519 348 520 348C522 346 521 321 520 321C519 320 519 320 520 320C521 320 521 320 520 319C519 318 521 318 527 318C533 318 535 318 533 319L530 320L533 320C534 320 537 320 538 321C540 321 540 321 540 320C539 318 540 319 544 321C552 326 554 340 546 346C545 347 544 348 544 348C544 347 543 348 542 348C541 350 537 351 538 349C539 349 538 348 538 348C537 347 537 347 538 347C542 347 544 331 541 325C539 322 537 321 533 321C531 321 530 321 529 324C529 328 529 343 530 348L531 351L524 351C519 351 518 351 519 350ZM1027 348C1016 339 1021 320 1036 319C1040 319 1040 319 1038 320L1034 321L1038 321C1039 321 1041 321 1041 322C1042 322 1041 323 1040 322C1037 321 1033 323 1031 326C1028 333 1030 348 1035 348C1036 348 1036 348 1035 350C1032 352 1031 351 1027 348ZM1053 350C1054 350 1054 349 1054 348C1054 348 1054 346 1055 345C1056 343 1057 343 1057 344C1057 345 1058 344 1058 343C1060 340 1060 340 1060 345C1059 348 1060 350 1061 350C1062 351 1060 351 1057 351C1054 351 1052 351 1053 350ZM1073 350C1074 350 1074 347 1074 345C1075 343 1074 341 1074 342C1073 342 1073 342 1073 341C1073 340 1071 340 1067 340C1060 340 1058 339 1059 338C1059 337 1061 336 1065 337C1072 337 1072 337 1068 329C1065 322 1065 320 1070 320C1071 320 1073 321 1072 321C1072 322 1072 322 1073 322C1073 322 1076 327 1078 333C1080 339 1083 345 1084 346C1084 347 1085 348 1084 348C1084 349 1084 350 1085 350C1086 351 1084 351 1079 351C1075 351 1072 351 1073 350ZM1090 350C1091 349 1091 349 1089 349C1088 350 1087 349 1086 349C1085 349 1086 348 1088 348C1089 348 1091 348 1091 347C1092 346 1092 340 1092 333L1091 320L1096 320C1101 320 1104 321 1102 322C1100 323 1099 328 1100 331C1100 334 1104 334 1105 331C1106 330 1107 329 1108 330C1109 332 1109 336 1107 338C1106 340 1106 340 1106 339C1106 337 1102 334 1101 335C1099 336 1099 345 1101 347C1102 349 1102 349 1101 349C1100 349 1100 350 1102 350C1103 351 1101 351 1096 351C1090 351 1089 351 1090 350ZM1121 350C1123 350 1123 348 1123 335L1122 320L1134 320C1141 320 1145 321 1145 321C1145 322 1145 322 1146 321C1147 320 1147 321 1147 324C1147 326 1147 327 1146 326C1146 324 1146 324 1145 325C1144 326 1144 326 1142 324C1140 323 1139 322 1140 322C1142 321 1134 322 1132 323C1131 323 1131 325 1131 328C1131 332 1131 333 1133 333C1134 333 1135 332 1136 332C1138 329 1140 331 1140 335C1140 338 1140 339 1139 338C1138 337 1138 337 1138 338C1138 338 1137 338 1135 336C1132 333 1131 334 1131 342C1131 347 1132 348 1135 348L1138 349L1134 349C1131 349 1131 349 1134 350C1136 351 1134 351 1128 351C1123 351 1120 351 1121 350ZM1139 350C1141 349 1141 349 1140 348C1139 348 1140 347 1141 346C1143 345 1144 343 1144 342C1144 341 1145 342 1146 343C1147 347 1147 349 1146 349C1145 349 1145 349 1146 350C1146 351 1144 351 1141 351C1137 351 1137 351 1139 350ZM1178 349C1174 344 1176 335 1181 337C1183 337 1184 337 1184 336C1185 335 1185 335 1184 335C1183 335 1183 335 1184 334C1184 333 1184 332 1184 330C1182 324 1185 319 1191 319C1193 319 1195 320 1194 320C1193 320 1192 321 1191 320C1189 320 1189 320 1190 321C1191 321 1191 322 1190 323C1188 325 1190 329 1192 330C1194 331 1195 332 1194 333C1194 334 1198 341 1201 341C1202 342 1203 343 1202 344C1202 344 1203 345 1205 346C1207 347 1207 347 1209 346C1209 344 1210 344 1210 345C1210 345 1210 346 1209 346C1209 347 1209 348 1209 349C1209 350 1208 350 1204 350C1195 350 1193 350 1194 349C1194 348 1194 348 1193 348C1193 348 1192 349 1192 350C1191 351 1190 351 1186 351C1182 351 1180 351 1178 349ZM1231 350C1232 350 1232 345 1232 335L1232 320L1236 320C1238 320 1240 320 1240 321C1240 322 1241 322 1241 321C1242 321 1242 321 1241 322C1240 324 1240 333 1241 333C1242 333 1242 333 1241 334C1241 335 1240 338 1240 341C1240 344 1241 347 1241 348C1242 349 1242 349 1241 349C1240 349 1240 349 1240 350C1241 351 1239 351 1235 351C1232 351 1230 351 1231 350ZM1251 350C1251 349 1250 349 1250 350C1249 350 1249 350 1249 349C1250 349 1250 348 1249 348C1249 348 1248 346 1248 344C1246 336 1246 335 1245 336C1244 336 1244 335 1245 335C1247 334 1247 333 1246 333C1246 333 1246 332 1247 332C1249 331 1250 325 1248 323C1247 322 1247 322 1248 322C1249 322 1249 322 1248 321C1247 320 1247 320 1250 320C1252 321 1254 322 1255 323C1257 325 1258 329 1256 331C1255 331 1255 331 1256 330C1256 329 1256 329 1255 329C1254 330 1254 331 1255 331C1255 332 1254 333 1252 333C1249 334 1249 334 1250 336C1251 336 1252 337 1251 338C1251 338 1251 338 1252 338C1253 337 1255 340 1255 343C1255 345 1257 347 1258 345C1259 344 1259 345 1259 347C1259 348 1258 350 1258 349C1257 349 1257 349 1257 350C1257 351 1256 351 1254 351C1252 351 1251 351 1251 350ZM1266 350C1266 350 1267 345 1267 336C1267 328 1267 321 1267 321C1267 320 1269 320 1271 320L1276 320L1275 326C1275 333 1275 333 1277 333C1279 333 1280 332 1281 331C1282 329 1284 331 1284 335C1284 337 1283 339 1283 339C1282 339 1278 335 1279 335C1279 334 1278 334 1277 334C1275 334 1275 335 1275 341L1276 348L1280 348L1284 349L1279 349C1275 349 1275 349 1276 350C1278 351 1276 351 1272 351C1268 351 1265 351 1266 350ZM1284 350C1286 350 1286 349 1285 349C1284 348 1284 347 1286 346C1287 345 1288 344 1288 344C1289 344 1290 344 1291 342C1292 341 1292 341 1292 344C1291 347 1291 349 1291 350C1291 351 1289 351 1286 351C1281 351 1281 351 1284 350ZM1300 350C1300 349 1300 348 1299 348C1298 349 1298 347 1298 345C1298 343 1298 341 1299 342C1300 342 1300 342 1300 341C1300 340 1301 340 1301 342C1302 343 1303 345 1304 346C1306 347 1306 348 1305 348C1305 347 1304 347 1304 348C1304 349 1303 349 1303 349C1302 349 1301 350 1301 350C1300 351 1300 351 1300 350ZM1315 350C1315 350 1316 349 1316 349C1316 348 1315 348 1315 349C1314 349 1314 349 1315 348C1318 344 1316 342 1309 338C1306 337 1303 335 1304 335C1304 334 1304 334 1304 334C1301 335 1300 334 1299 331C1296 323 1306 316 1314 320C1316 320 1317 320 1318 320C1319 319 1319 319 1319 321C1319 322 1319 322 1320 321C1321 320 1321 321 1321 324C1321 327 1321 328 1320 327C1320 325 1319 325 1319 326C1318 326 1317 326 1316 324C1314 323 1312 322 1311 322C1310 322 1310 322 1312 321C1313 320 1313 320 1310 320C1307 320 1305 321 1304 321C1303 322 1303 322 1305 322C1307 321 1307 321 1306 322C1302 325 1305 329 1312 331C1320 334 1325 340 1322 344C1321 344 1321 345 1322 345C1322 345 1322 346 1320 347C1319 347 1319 348 1320 347C1321 347 1321 347 1320 348C1319 349 1318 350 1318 349C1317 349 1317 349 1317 350C1317 351 1316 351 1315 351C1314 351 1314 351 1315 350ZM1334 350C1333 350 1334 349 1336 350C1338 350 1338 350 1337 349C1336 349 1336 348 1337 348C1338 347 1338 342 1338 334C1338 323 1338 322 1336 322C1335 322 1335 322 1336 321C1337 320 1339 320 1342 320C1344 320 1346 320 1347 321C1348 322 1348 322 1347 322C1346 322 1346 325 1346 334C1346 345 1346 347 1348 348C1349 349 1349 349 1348 349C1346 349 1346 349 1348 350C1350 351 1348 351 1342 351C1338 351 1334 351 1334 350ZM1357 350C1358 350 1358 349 1358 348C1357 347 1359 345 1361 345C1362 345 1363 346 1364 347C1365 348 1365 349 1363 350C1360 351 1355 352 1357 350ZM1378 350C1379 349 1379 349 1378 349C1377 349 1377 349 1378 348C1379 347 1379 346 1378 344C1378 341 1377 340 1373 340L1368 339L1372 339C1376 338 1376 338 1371 338C1368 338 1366 338 1366 339C1367 340 1366 340 1365 340C1363 340 1362 339 1363 338C1363 337 1363 336 1364 336C1364 337 1365 336 1366 336C1367 335 1367 335 1367 336C1366 337 1367 337 1370 337C1373 337 1375 337 1375 336C1375 334 1372 326 1371 326C1370 327 1369 323 1370 322C1371 321 1372 320 1374 320C1377 320 1377 320 1383 336C1385 340 1387 345 1388 346C1388 347 1389 348 1388 348C1388 349 1388 350 1389 350C1390 351 1388 351 1383 351C1378 351 1376 351 1378 350ZM1400 350C1396 348 1395 345 1395 334C1395 327 1395 322 1395 321C1395 320 1397 320 1399 320L1404 320L1403 332C1403 338 1403 344 1404 345C1404 346 1404 347 1404 348C1405 348 1406 348 1407 348C1409 348 1409 348 1408 349C1406 351 1403 351 1400 350ZM1429 350C1430 349 1431 346 1431 336C1431 329 1431 323 1430 323C1428 321 1430 320 1435 320C1441 320 1445 321 1441 322C1439 323 1439 324 1439 328C1439 331 1439 333 1440 333C1441 333 1441 333 1440 334C1439 335 1439 338 1439 342C1439 345 1439 348 1439 349C1438 349 1439 350 1440 350C1441 351 1438 351 1434 351C1430 351 1428 351 1429 350ZM1449 349C1448 348 1447 347 1447 346C1448 345 1448 345 1447 345C1446 345 1446 343 1446 342C1446 340 1445 337 1444 337C1443 335 1443 335 1445 333C1448 330 1449 325 1447 323C1446 322 1446 322 1447 322C1448 322 1448 322 1447 321C1446 320 1446 320 1449 320C1458 322 1459 331 1450 333L1448 334L1451 336C1452 338 1453 340 1454 342C1454 345 1455 345 1457 345C1460 345 1461 346 1459 348C1457 351 1451 351 1449 349ZM1462 350C1462 349 1462 349 1461 349C1460 349 1461 348 1462 347C1463 346 1465 345 1465 345C1466 345 1466 344 1466 343C1465 342 1465 341 1466 342C1466 342 1467 343 1467 342C1468 342 1468 343 1468 344C1467 345 1467 347 1468 348C1469 349 1469 349 1468 349C1467 349 1467 350 1468 350C1470 351 1469 351 1466 351C1463 351 1461 351 1462 350ZM1482 350C1484 350 1484 349 1483 349C1483 349 1482 348 1483 347C1483 346 1483 344 1482 343C1481 340 1481 340 1474 340C1471 340 1468 340 1468 340C1468 339 1468 339 1467 339C1466 340 1466 339 1467 339C1467 338 1468 337 1469 337C1469 337 1470 336 1470 336C1470 335 1470 335 1471 336C1471 337 1473 337 1476 337L1480 336L1478 331C1476 327 1475 326 1474 327C1472 327 1472 327 1473 324C1474 321 1475 320 1477 320C1479 320 1480 320 1480 321C1480 322 1480 322 1481 322C1481 321 1483 325 1485 331C1488 339 1492 347 1494 350C1494 351 1491 351 1487 351C1483 351 1481 351 1482 350ZM1498 350C1499 349 1498 349 1496 349L1494 349L1496 348C1499 348 1500 347 1500 341L1501 336L1501 340C1502 344 1502 344 1502 338C1502 332 1502 330 1501 332C1500 335 1500 334 1500 330C1500 326 1500 324 1499 323C1496 322 1498 320 1502 320C1506 320 1506 321 1514 330L1522 340L1523 332L1523 326L1524 332L1525 340L1525 332C1525 326 1525 325 1523 324C1522 324 1521 322 1521 321C1521 320 1525 320 1527 322C1527 322 1528 323 1527 323C1526 323 1526 328 1526 337C1526 347 1525 350 1524 351C1524 351 1523 351 1524 350C1525 350 1525 349 1525 349C1525 348 1524 348 1523 349C1522 350 1520 348 1513 340C1508 334 1504 330 1504 330C1503 330 1503 345 1504 348C1505 351 1505 351 1501 351C1499 351 1498 351 1498 350ZM1542 350C1543 349 1543 349 1542 349C1541 349 1542 348 1542 347C1544 346 1544 343 1544 334C1544 323 1544 322 1542 322C1540 322 1536 325 1536 327C1536 327 1535 328 1534 328C1532 328 1532 327 1532 324L1532 320L1546 320C1554 320 1561 321 1562 321C1563 322 1563 327 1562 329C1560 330 1560 330 1560 329C1560 327 1555 322 1554 322C1552 322 1552 324 1552 335C1552 348 1552 348 1554 348C1556 349 1556 349 1554 349C1552 349 1551 349 1552 350C1552 351 1550 351 1547 351C1544 351 1542 351 1542 350ZM450 346C448 344 446 341 447 340C447 340 447 339 446 339C445 339 445 332 446 328C448 324 453 319 456 319C458 318 460 318 462 319C465 320 465 320 463 320C459 320 456 323 455 327C453 334 454 345 458 347C460 349 460 349 458 349C454 350 454 350 450 346ZM1192 347C1194 347 1194 346 1186 336C1186 336 1185 336 1185 337C1182 339 1183 342 1186 345C1187 347 1188 348 1188 349C1188 349 1188 349 1189 349C1190 348 1191 348 1192 347ZM1069 338C1068 338 1066 338 1065 338C1064 339 1065 339 1067 339C1069 339 1070 339 1069 338ZM1477 338C1476 338 1474 338 1472 338C1471 339 1472 339 1474 339C1477 339 1478 339 1477 338ZM1205 335C1204 335 1204 333 1203 332C1203 330 1204 330 1207 330C1209 330 1210 330 1210 331C1209 331 1209 332 1210 332C1210 332 1210 333 1208 335C1207 336 1206 336 1205 335ZM164 331C162 331 161 330 161 329C162 328 162 328 161 328C160 328 160 328 160 327C161 326 161 326 160 326C159 326 159 321 159 312C159 298 159 297 161 294C164 292 165 292 171 291L179 291L179 285L179 279L174 279C167 279 164 277 164 272C165 268 166 267 173 267L179 267L179 242C179 218 179 217 177 219C168 232 161 239 148 248C129 260 114 267 42 294C35 297 33 296 33 291C33 289 33 288 39 285L46 282L46 278C45 275 42 253 38 227C35 201 30 164 27 144C24 124 22 107 21 107C21 107 18 107 15 109C9 111 6 110 5 107C3 102 1 104 72 77C110 62 113 62 126 62C132 63 137 63 138 63C140 64 141 64 141 55C141 47 141 45 143 40C147 33 152 27 159 24L164 22L228 22C298 22 295 21 303 29C310 36 312 41 312 54C312 65 312 66 310 71C306 78 300 84 294 86C290 87 283 87 277 86L274 85L274 176L274 267L283 267C294 267 296 268 296 273C295 278 292 279 282 279L274 279L274 285L274 291L281 291C295 291 296 294 296 313C296 327 295 327 293 330L290 332L229 333C177 333 167 333 164 331ZM1195 327C1196 325 1196 324 1195 323C1194 321 1194 321 1196 322C1197 323 1198 324 1198 324C1198 325 1198 325 1199 324C1200 324 1199 328 1198 330C1197 330 1197 330 1198 329C1198 327 1198 327 1196 328L1193 330L1195 327ZM1326 325C1326 320 1326 320 1329 320C1332 320 1334 322 1333 324C1332 324 1331 325 1330 324C1330 324 1330 324 1330 325C1331 325 1331 327 1330 327C1330 329 1329 329 1328 328C1327 327 1327 327 1327 329C1326 330 1326 328 1326 325ZM1417 327C1417 326 1417 324 1416 324C1416 323 1415 322 1416 321C1416 320 1422 319 1422 321C1422 323 1421 325 1419 325C1419 325 1418 326 1418 328C1417 330 1417 330 1417 327ZM1045 326C1044 324 1043 323 1044 323C1045 323 1045 322 1043 321C1042 320 1042 320 1043 321C1044 321 1046 321 1047 320C1048 319 1048 319 1047 320C1047 321 1047 322 1048 322C1049 322 1049 328 1048 328C1047 329 1046 327 1045 326ZM1352 325C1351 324 1351 322 1351 322C1352 322 1352 322 1352 321C1351 320 1352 320 1353 320C1355 320 1356 321 1357 323C1358 327 1358 328 1357 327C1356 327 1355 327 1355 328C1355 328 1354 327 1352 325ZM1111 325C1107 321 1107 320 1111 320C1115 320 1116 321 1116 325C1116 328 1114 328 1111 325ZM1286 325C1282 321 1282 320 1287 320C1291 320 1291 320 1291 324C1291 327 1291 327 1289 326C1288 325 1288 325 1289 326C1289 329 1289 328 1286 325ZM284 312L284 304L227 303L171 303L171 311C171 316 171 320 172 320C172 321 197 321 228 321L284 320L284 312ZM958 292C952 285 948 279 949 277C949 275 950 275 1003 275L1056 275L1056 226C1056 171 1056 172 1063 183L1067 189L1067 241L1067 293L1064 294C1062 295 1045 295 1011 295L961 295L958 292ZM1137 293C1117 289 1100 272 1093 249C1091 240 1091 214 1093 205C1097 194 1102 184 1110 176C1121 165 1133 160 1151 160C1163 160 1171 162 1181 168C1187 171 1195 179 1195 181C1195 181 1196 182 1197 182C1197 183 1198 183 1198 184C1197 185 1197 185 1198 185C1200 185 1204 193 1206 201C1214 223 1211 251 1199 268C1185 290 1162 299 1137 293ZM1273 293C1262 290 1254 285 1246 277C1236 265 1231 255 1229 236C1227 221 1231 198 1236 194C1236 193 1237 192 1237 192C1235 192 1240 184 1246 178C1258 165 1270 160 1288 160C1308 160 1324 167 1334 182C1343 195 1347 205 1348 223C1350 271 1315 304 1273 293ZM760 290C758 289 759 282 761 282C765 282 768 280 769 276C770 274 770 256 770 224L770 176L767 174C766 173 764 172 762 172C761 172 760 172 760 171C761 170 761 170 760 170C759 170 759 169 759 167C759 165 760 164 760 164C761 164 761 164 760 163C759 162 767 162 787 162C810 163 817 163 821 164C837 169 843 178 842 195C841 201 841 204 839 207C835 213 829 218 824 219C818 221 817 222 822 223C836 228 844 236 846 249C849 266 842 282 829 288C824 290 822 291 793 291C771 291 762 291 760 290ZM262 285L262 279L226 279L191 279L191 285L191 291L226 291L262 291L262 285ZM446 290C445 290 445 286 446 286C447 286 447 286 446 285C446 284 448 284 451 284C461 284 469 280 472 272L474 268L474 150C474 60 474 33 473 29C471 22 463 16 455 16C451 16 445 13 445 11C445 8 447 8 505 8C561 8 581 9 584 11C584 12 585 12 586 12C588 10 600 15 606 19C617 27 626 38 631 54C634 61 634 64 635 76C635 89 635 91 633 98C631 103 628 109 626 113C622 119 612 128 611 127C610 127 610 127 610 128C611 129 596 137 590 139C588 140 586 141 586 141C586 141 589 143 594 145C621 154 635 168 642 190C645 199 646 219 644 231C638 257 621 276 595 285C580 291 576 291 509 291C475 291 447 291 446 290ZM646 287C646 284 646 283 649 281C656 278 656 276 676 206L688 162L696 162L704 162L718 218C726 248 732 273 733 275C733 276 734 277 733 277C733 277 735 279 737 280C742 282 742 283 742 286C742 289 742 290 740 291C739 291 729 291 719 291C703 291 701 290 700 289C699 287 699 286 700 285C701 283 701 283 700 283C699 283 701 282 703 282C709 280 710 279 710 274C710 269 705 248 704 247C703 246 696 246 687 246L672 246L671 250C670 252 669 256 669 259C668 262 667 267 667 271C667 278 669 281 674 282C677 283 678 283 678 287L678 291L662 291L646 291L646 287ZM874 290C874 289 873 287 873 285C873 282 873 282 877 282C879 281 882 280 883 279C885 277 886 276 886 258C886 239 886 238 884 233C882 229 877 217 872 206C868 194 863 183 862 181C860 176 855 172 851 172C849 172 849 172 850 171C851 170 851 170 850 170C849 169 849 167 849 165L849 162L874 162L898 162L899 165C899 167 899 169 898 170C897 170 897 171 898 171C898 172 896 172 894 172C889 172 887 174 887 179C887 181 890 190 894 201C898 210 901 219 901 220C901 220 901 221 902 221C903 221 903 221 903 222C902 222 903 223 904 224C905 226 906 225 912 211C924 185 925 180 920 175C918 173 916 172 914 172C912 172 911 172 912 171C913 170 913 170 912 170C911 169 911 167 911 165L911 162L929 162C941 162 946 162 945 163C944 164 944 164 945 164C946 164 946 168 945 170C944 170 944 171 945 171C945 171 944 172 942 173C937 176 935 181 922 210L909 238L909 253C909 262 909 270 909 273C909 278 912 281 917 282C919 282 921 283 921 283C921 284 921 286 922 288L922 291L899 291C882 291 875 291 874 290ZM1523 277C1495 230 1487 216 1487 215C1487 214 1486 213 1485 213C1485 212 1478 200 1470 186C1462 173 1453 158 1451 154C1448 149 1446 146 1447 146C1447 146 1446 145 1446 145C1444 143 1415 94 1416 93C1416 93 1416 92 1415 92C1415 92 1411 85 1406 78C1396 61 1396 60 1395 60C1394 60 1394 235 1395 246C1396 256 1399 266 1402 268C1402 269 1403 270 1402 270C1402 271 1402 271 1403 271C1403 270 1404 271 1405 272C1407 274 1416 278 1420 278C1422 278 1424 278 1424 279C1424 281 1424 281 1425 280C1426 279 1426 279 1426 282C1426 285 1426 285 1425 284C1424 282 1424 282 1424 283C1423 285 1420 285 1389 285C1362 285 1355 285 1355 284C1355 283 1355 283 1354 284C1353 285 1353 284 1353 282C1353 279 1353 278 1354 279C1354 280 1355 280 1355 279C1356 278 1357 278 1358 278C1361 278 1369 275 1373 272C1375 271 1377 268 1378 266C1383 256 1383 256 1383 144L1383 38L1378 30C1376 26 1373 21 1372 20C1371 20 1370 18 1370 17C1370 17 1370 16 1369 16C1369 17 1367 16 1366 15C1365 14 1364 13 1364 13C1356 12 1355 12 1354 9C1354 8 1354 6 1355 6C1356 5 1367 4 1372 5C1373 5 1385 5 1400 5L1426 5L1432 16C1436 22 1446 41 1456 58C1466 74 1475 91 1478 96C1481 101 1483 105 1482 105C1482 106 1482 106 1483 106C1483 105 1485 108 1488 112C1499 133 1523 175 1524 175C1526 177 1525 37 1523 31C1521 21 1513 14 1504 12C1497 11 1494 7 1498 6C1500 5 1559 5 1561 6C1565 8 1562 12 1555 14C1552 15 1549 16 1547 17C1543 19 1540 27 1538 34C1537 39 1537 80 1537 166C1537 235 1537 291 1536 290C1536 289 1535 289 1533 290C1531 291 1531 290 1523 277ZM1163 282C1169 279 1174 270 1178 257C1180 247 1180 208 1178 197C1173 178 1164 169 1151 169C1140 169 1134 173 1128 184C1123 195 1121 205 1122 228C1122 246 1122 250 1124 257C1128 274 1134 282 1145 285C1149 286 1158 285 1163 282ZM1296 284C1305 282 1313 270 1316 253C1318 243 1318 208 1316 199C1313 189 1308 178 1303 173C1300 171 1299 170 1299 170C1299 170 1296 170 1294 169C1281 167 1270 174 1264 188C1261 197 1259 209 1259 228C1259 262 1266 280 1281 284C1287 286 1290 286 1296 284ZM810 282C813 281 818 276 820 272C823 265 824 253 822 246C822 243 820 239 820 238C819 237 819 236 819 236C820 236 819 235 817 233C812 229 808 227 800 226C793 226 793 226 792 228C791 233 793 275 794 278C794 280 796 281 797 282C800 283 806 283 810 282ZM66 275C82 269 97 263 97 262C97 262 92 235 87 203C81 171 77 143 76 141C76 139 76 137 76 136C75 135 73 125 71 112C69 100 67 90 67 90C67 89 65 90 63 91C61 91 58 92 58 91C57 91 57 91 57 92C57 93 48 96 48 95C48 95 48 95 47 96C47 96 43 98 39 99C31 102 29 104 31 108C32 109 37 146 43 192C55 274 56 278 56 278C57 278 61 276 66 275ZM550 275C567 272 581 256 586 235C588 223 588 203 585 191C581 178 578 172 572 166C563 157 553 153 536 153L526 152L526 206C526 256 526 261 527 265C529 271 532 273 537 275C541 276 542 276 550 275ZM262 162C262 59 263 57 264 54C266 53 267 52 267 52C267 52 268 52 269 51C274 47 285 46 283 51C283 52 283 52 284 52C285 51 285 55 284 57C283 58 281 59 279 60C274 62 273 64 275 68C278 75 289 77 295 71C300 67 301 61 301 53C301 46 300 45 297 41C293 36 289 34 282 34C268 34 253 47 248 64C246 73 246 73 228 73C214 73 213 73 211 71C209 70 208 68 209 67C209 66 209 66 208 66C207 67 202 55 203 54C203 53 202 53 202 53C201 53 201 53 201 52C202 52 201 50 194 43C192 41 188 38 184 36C179 33 177 33 172 33C160 34 153 41 152 53C152 58 152 60 154 64C155 66 156 69 156 70C156 70 156 70 156 70C157 69 159 70 161 72C167 76 175 76 178 70C182 66 180 62 172 59C170 58 169 57 170 57C170 56 170 56 169 56C168 56 168 51 170 49C172 47 178 48 184 51C188 53 191 57 190 59C189 60 189 60 190 60C191 60 191 91 191 163C191 219 191 266 192 266C192 267 208 267 227 267L262 267L262 162ZM947 264C946 262 946 243 947 240C947 238 948 238 955 238L964 238L964 180L964 123L956 123C951 122 947 122 946 122C945 122 946 97 947 95C948 94 955 94 978 94C1001 94 1008 94 1008 95C1008 96 1008 96 1009 95C1010 94 1010 98 1010 107C1010 115 1010 121 1009 121C1009 120 1008 120 1008 121C1007 122 1003 122 999 123L992 123L992 181L992 238L1006 238C1014 237 1022 237 1023 237L1026 237L1026 206C1026 180 1026 175 1027 173C1029 171 1046 171 1048 174C1050 175 1051 175 1051 174C1052 173 1052 193 1052 219C1052 247 1052 265 1051 264C1050 264 1050 264 1050 265C1050 266 1034 266 999 266C951 266 947 266 947 264ZM115 252C123 246 126 237 126 217C126 202 124 193 120 184C115 172 108 168 99 169C90 171 90 168 99 214C103 237 106 256 106 256C106 257 111 254 115 252ZM209 249C207 247 207 246 207 169C207 105 207 90 208 89C210 86 215 86 217 89C219 91 219 95 219 169L219 246L217 249C214 252 212 252 209 249ZM239 250C240 249 239 249 239 250C238 250 237 249 236 248C234 245 235 90 236 91C237 91 237 91 237 90C236 88 237 87 241 87C247 87 247 83 247 168C247 222 247 247 246 248C245 249 244 250 243 250C243 249 242 249 243 250C243 251 242 251 241 251C240 251 239 251 239 250ZM143 239C150 235 167 219 166 219C165 219 166 217 168 214C173 206 175 197 175 185C174 176 174 174 172 169C169 163 163 158 157 156C152 154 135 154 126 156C121 158 118 158 118 157C118 157 117 156 117 157C116 157 115 153 115 151C116 151 119 148 123 146C141 137 152 119 152 100C152 82 141 71 124 71C118 71 107 73 104 75C102 76 102 76 105 80C112 89 116 104 117 122C117 133 116 143 111 153C109 156 108 159 108 159C108 160 111 161 114 163C126 169 134 186 136 210C136 220 135 238 133 243C132 246 134 246 143 239ZM701 234C701 234 700 229 699 225C698 220 697 216 698 216C698 215 698 215 697 215C697 215 695 209 693 201C691 193 689 187 689 187C689 187 686 195 684 204C681 214 678 224 677 228C676 231 675 235 676 235C676 236 682 236 689 236C699 236 701 236 701 234ZM997 233C997 233 998 232 997 231C996 230 996 210 996 182C996 142 996 135 997 134C998 133 999 132 998 132C997 132 1000 132 1004 132C1015 132 1014 133 1014 113C1014 103 1014 96 1015 97C1015 98 1016 98 1017 98C1019 97 1023 107 1024 117C1025 128 1025 150 1024 150C1023 149 1023 149 1023 150C1023 150 1019 151 1015 151L1006 152L1006 193L1006 234L1001 234C998 234 996 234 997 233ZM808 216C808 215 809 215 809 215C812 215 817 209 818 205C819 200 819 189 818 184C817 181 817 179 817 179C817 179 812 174 810 173C809 172 806 172 803 172C796 172 794 174 793 182C792 189 792 215 793 216C794 217 808 217 808 216ZM95 158C100 154 104 145 106 138C109 125 105 97 99 88C97 84 95 83 93 82C89 82 81 83 78 85C76 86 89 161 91 161C91 161 93 160 95 158ZM179 124L179 86L172 86C169 86 164 86 163 86L160 85L161 90C162 98 162 108 160 115C159 119 157 122 157 122C157 122 156 123 156 124C156 127 152 134 147 139C145 142 143 144 143 144C143 144 146 144 148 145C160 146 170 150 176 157C177 159 179 161 179 161C179 161 179 144 179 124ZM551 132C559 130 566 124 571 118C573 116 575 113 575 112C576 111 577 110 576 110C576 110 577 107 578 104C581 96 583 81 581 69C581 64 579 57 578 54C577 50 576 48 577 48C577 48 577 48 576 47C576 47 574 44 572 42C564 30 553 25 535 25L526 24L525 80L525 135L535 135C540 134 547 133 551 132ZM236 58C236 57 236 54 237 53C237 51 237 49 238 48C239 48 239 47 238 47C238 46 238 46 239 46C240 46 240 46 240 45C239 44 239 44 240 44C241 44 241 43 241 43C240 42 241 41 242 40C243 40 243 39 243 39C242 39 243 38 244 36C246 34 247 33 246 33C238 32 224 32 217 33L209 33L214 40C219 46 220 49 221 57L222 61L228 61C235 61 235 61 236 58Z"/></svg>
